<svg width="513" height="513" viewBox="0 0 513 513" fill="none" xmlns="http://www.w3.org/2000/svg">
<path d="M0.70163 24.7149C0.70163 11.5377 11.8439 0.855408 25.5886 0.855408H487.815C501.559 0.855408 512.702 11.5377 512.702 24.7149V488.996C512.702 502.173 501.559 512.855 487.815 512.855H25.5886C11.8439 512.855 0.70163 502.173 0.70163 488.996V24.7149Z" fill="#8B5CF6"/>
<path d="M87.4896 300.099H185.523V275.222H131.973L187.631 189.839V186.255H93.8143V211.132H143.358L87.4896 296.515V300.099Z" fill="#111827"/>
<path d="M255.33 303.262C266.293 303.262 276.377 300.38 285.583 294.618C294.859 288.855 301.641 280.774 305.927 270.373L277.256 262.151C272.898 271.708 265.028 276.487 253.643 276.487C245.843 276.487 239.694 274.309 235.196 269.952C230.769 265.594 228.028 259.34 226.974 251.188H306.876C308.071 237.414 306.665 225.433 302.66 215.243C298.654 205.053 292.47 197.147 284.107 191.525C275.745 185.903 265.59 183.092 253.643 183.092C242.399 183.092 232.456 185.657 223.812 190.787C215.168 195.847 208.386 202.98 203.467 212.186C198.548 221.392 196.088 232.214 196.088 244.653C196.088 256.037 198.583 266.157 203.573 275.011C208.632 283.796 215.59 290.718 224.444 295.777C233.369 300.767 243.664 303.262 255.33 303.262ZM254.908 207.969C261.795 207.969 267.066 209.691 270.72 213.135C274.445 216.578 276.834 222.165 277.888 229.895H227.712C230.734 215.278 239.799 207.969 254.908 207.969Z" fill="#111827"/>
<path d="M327.379 350.697H356.262V295.988C359.986 298.307 364.097 300.099 368.595 301.364C373.163 302.629 378.117 303.262 383.458 303.262C393.929 303.262 403.1 300.626 410.97 295.356C418.841 290.085 424.955 282.917 429.312 273.852C433.739 264.786 435.953 254.561 435.953 243.177C435.953 231.582 433.704 221.286 429.207 212.291C424.779 203.226 418.525 196.093 410.443 190.893C402.362 185.692 392.875 183.092 381.982 183.092C376.079 183.092 370.668 183.936 365.749 185.622C360.9 187.238 356.543 189.557 352.678 192.579V186.255H327.379V350.697ZM378.82 277.752C369.262 277.752 362.516 274.59 358.581 268.265C354.645 261.87 352.678 253.507 352.678 243.177C352.678 232.847 354.61 224.519 358.475 218.194C362.411 211.799 368.841 208.602 377.766 208.602C384.161 208.602 389.396 210.183 393.472 213.345C397.618 216.437 400.675 220.619 402.643 225.889C404.61 231.09 405.594 236.852 405.594 243.177C405.594 249.572 404.646 255.405 402.748 260.675C400.851 265.876 397.934 270.022 393.999 273.114C390.064 276.206 385.004 277.752 378.82 277.752Z" fill="#111827"/>
</svg>
