<svg width="512" height="513" viewBox="0 0 512 513" fill="none" xmlns="http://www.w3.org/2000/svg">
<rect y="0.795776" width="512" height="512" rx="10" fill="#8B5CF6"/>
<path d="M89.4547 305.055H168.949V284.882H125.526L170.659 215.645V212.739H94.5834V232.911H134.758L89.4547 302.148V305.055Z" fill="#111827"/>
<path d="M225.556 307.619C234.445 307.619 242.623 305.283 250.088 300.61C257.61 295.937 263.109 289.384 266.585 280.95L243.335 274.283C239.802 282.033 233.42 285.908 224.188 285.908C217.863 285.908 212.876 284.141 209.229 280.608C205.639 277.075 203.417 272.003 202.562 265.393H267.354C268.323 254.224 267.183 244.508 263.935 236.245C260.687 227.982 255.672 221.571 248.891 217.012C242.11 212.454 233.875 210.174 224.188 210.174C215.07 210.174 207.007 212.254 199.998 216.414C192.989 220.517 187.489 226.301 183.5 233.766C179.511 241.231 177.517 250.007 177.517 260.093C177.517 269.325 179.54 277.531 183.586 284.711C187.689 291.834 193.33 297.447 200.511 301.55C207.748 305.596 216.096 307.619 225.556 307.619ZM225.214 230.347C230.798 230.347 235.072 231.743 238.035 234.535C241.056 237.328 242.993 241.858 243.848 248.126H203.16C205.611 236.273 212.962 230.347 225.214 230.347Z" fill="#111827"/>
<path d="M283.98 346.084H307.401V301.721C310.421 303.602 313.755 305.055 317.402 306.08C321.106 307.106 325.123 307.619 329.454 307.619C337.945 307.619 345.381 305.482 351.764 301.208C358.146 296.934 363.104 291.122 366.637 283.771C370.227 276.42 372.022 268.128 372.022 258.897C372.022 249.494 370.199 241.146 366.552 233.852C362.961 226.5 357.89 220.716 351.336 216.5C344.783 212.283 337.09 210.174 328.257 210.174C323.471 210.174 319.083 210.858 315.094 212.226C311.162 213.536 307.629 215.417 304.495 217.867V212.739H283.98V346.084ZM325.693 286.933C317.943 286.933 312.472 284.369 309.281 279.24C306.09 274.055 304.495 267.273 304.495 258.897C304.495 250.52 306.062 243.767 309.196 238.638C312.387 233.453 317.601 230.86 324.838 230.86C330.024 230.86 334.269 232.142 337.574 234.706C340.937 237.214 343.415 240.604 345.011 244.878C346.607 249.095 347.404 253.768 347.404 258.897C347.404 264.082 346.635 268.812 345.097 273.086C343.558 277.303 341.193 280.665 338.002 283.172C334.811 285.68 330.708 286.933 325.693 286.933Z" fill="#111827"/>
<path fill-rule="evenodd" clip-rule="evenodd" d="M420.794 133.236C421.987 133.611 423.029 134.357 423.769 135.365C424.508 136.374 424.907 137.591 424.907 138.842V168.221H448.41C449.485 168.221 450.539 168.515 451.459 169.072C452.378 169.629 453.126 170.428 453.623 171.381C454.12 172.334 454.346 173.405 454.276 174.477C454.207 175.55 453.844 176.583 453.229 177.464L412.098 236.222C411.382 237.248 410.357 238.018 409.174 238.421C407.99 238.824 406.708 238.839 405.515 238.463C404.322 238.088 403.28 237.341 402.541 236.333C401.801 235.324 401.403 234.106 401.404 232.855V203.476H377.9C376.826 203.476 375.771 203.182 374.852 202.625C373.933 202.068 373.184 201.269 372.687 200.316C372.191 199.363 371.965 198.292 372.034 197.22C372.104 196.147 372.466 195.114 373.082 194.233L414.213 135.475C414.93 134.451 415.955 133.683 417.138 133.281C418.321 132.88 419.602 132.866 420.794 133.242V133.236Z" fill="#111827"/>
</svg>
